<?xml version="1.0" standalone="no"?>
<!DOCTYPE svg PUBLIC "-//W3C//DTD SVG 20010904//EN"
 "http://www.w3.org/TR/2001/REC-SVG-20010904/DTD/svg10.dtd">
<svg version="1.0" xmlns="http://www.w3.org/2000/svg"
 width="241.000000pt" height="243.000000pt" viewBox="0 0 241.000000 243.000000"
 preserveAspectRatio="xMidYMid meet">

<g transform="translate(0.000000,243.000000) scale(0.100000,-0.100000)"
fill="#000000" stroke="none">
<path d="M1689 1877 c-19 -12 -43 -37 -54 -54 l-20 -32 -250 -1 c-137 0 -277
-5 -310 -10 -80 -13 -189 -68 -193 -97 -6 -41 27 -44 103 -10 l70 32 290 3
290 2 20 -32 c47 -76 139 -100 205 -55 54 36 72 68 72 127 0 117 -129 191
-223 127z m137 -85 c35 -46 -1 -112 -61 -112 -82 0 -106 104 -31 135 34 15 71
5 92 -23z"/>
<path d="M782 1638 c-19 -19 -14 -46 9 -59 18 -9 25 -7 41 9 16 16 18 23 9 41
-13 23 -40 28 -59 9z"/>
<path d="M1426 1461 c-143 -144 -157 -161 -147 -180 7 -12 19 -21 29 -21 21 0
322 299 322 321 0 17 -19 39 -35 39 -6 0 -82 -72 -169 -159z"/>
<path d="M700 1528 c-11 -18 -30 -58 -42 -88 -20 -50 -22 -78 -26 -301 -4
-220 -2 -247 13 -262 19 -19 24 -20 45 -7 12 8 16 52 20 262 5 252 5 253 33
314 33 71 33 107 0 112 -16 2 -28 -6 -43 -30z"/>
<path d="M1737 1534 c-4 -4 -7 -98 -7 -208 0 -226 -10 -305 -46 -383 -32 -66
-29 -88 11 -88 24 0 34 7 52 40 45 81 54 151 51 405 l-3 235 -25 3 c-14 2 -29
0 -33 -4z"/>
<path d="M1192 1228 c-18 -18 -14 -46 8 -58 15 -8 24 -6 40 10 16 16 18 25 10
40 -12 22 -40 26 -58 8z"/>
<path d="M957 991 c-139 -138 -160 -163 -151 -178 25 -40 45 -27 200 128 85
85 154 162 154 171 0 10 -9 22 -21 29 -19 10 -36 -4 -182 -150z"/>
<path d="M1601 816 c-21 -26 -9 -51 24 -51 27 0 30 3 30 30 0 23 -5 31 -21 33
-11 2 -26 -4 -33 -12z"/>
<path d="M626 800 c-91 -28 -135 -145 -83 -220 36 -54 68 -72 127 -72 60 0 92
18 129 75 l24 37 269 0 c288 0 352 8 434 54 32 17 39 27 39 51 0 40 -22 43
-88 11 -80 -37 -157 -46 -418 -46 l-236 0 -24 37 c-43 66 -108 93 -173 73z
m94 -90 c44 -44 11 -130 -49 -130 -70 1 -100 95 -44 138 25 18 70 15 93 -8z"/>
</g>
</svg>
